<svg width="135" height="28" viewBox="0 0 135 28" fill="none" xmlns="http://www.w3.org/2000/svg">
<path fill-rule="evenodd" clip-rule="evenodd" d="M29.1771 26.741H22.0945L21.0937 25.4322C19.708 25.9711 18.4763 26.356 17.3985 26.664C16.3207 26.8949 15.1659 27.0489 13.8572 27.0489C9.54607 27.0489 6.15875 25.9711 3.77224 23.8925C1.23175 21.737 0 18.4266 0 14.1925C0 9.88136 1.15477 6.57103 3.38731 4.33849C5.69685 2.10594 9.16114 0.951172 13.8572 0.951172C18.3993 0.951172 21.8636 2.18292 24.2501 4.56944C26.3287 6.64802 27.3295 9.34247 27.3295 12.5758C27.3295 14.9623 27.2525 16.733 27.0215 17.8108C26.7136 19.5044 25.9437 21.1211 24.866 22.5838L29.1771 26.741ZM21.0937 13.9615C21.0937 11.652 20.6318 9.80438 19.631 8.34168C18.3993 6.49405 16.3977 5.57024 13.7802 5.57024C11.3167 5.57024 9.3921 6.2631 8.16035 7.7258C6.9286 9.11152 6.31272 11.1901 6.31272 13.8846C6.31272 16.8869 7.00558 19.1195 8.46828 20.5052C9.77702 21.737 11.7016 22.3528 14.2421 22.3528C16.5516 22.3528 18.2453 21.66 19.4001 20.2743C20.5548 18.8116 21.0937 16.733 21.0937 13.9615Z" fill="#768298"/>
<path fill-rule="evenodd" clip-rule="evenodd" d="M55.8912 18.8116C55.8912 21.0441 55.1213 22.8917 53.6586 24.4314C52.1959 25.9711 50.3483 26.664 48.0388 26.664H30.3324V22.1219H45.0364C46.0372 22.1219 46.884 21.8909 47.4999 21.429C48.2697 20.8901 48.6547 20.1973 48.6547 19.2735C48.6547 17.1179 47.115 16.0401 44.1126 16.0401H36.7221C34.5665 16.0401 32.7189 15.3473 31.1022 14.0385C29.4855 12.7298 28.7157 11.0361 28.7157 8.95756C28.7157 6.72501 29.4855 4.87738 31.1022 3.49166C32.6419 2.10595 34.7205 1.41309 37.338 1.41309H54.3515V5.72421H39.2626C38.5697 5.72421 37.8768 6.03215 37.261 6.57104C36.4911 7.10993 36.1832 7.80279 36.1832 8.57263C36.1832 9.41946 36.4911 10.1893 37.184 10.7282C37.8768 11.3441 38.6467 11.575 39.5705 11.575H47.7308C50.2713 11.575 52.2729 12.2679 53.7356 13.5766C55.1983 14.8854 55.8912 16.656 55.8912 18.8116Z" fill="#768298"/>
<path fill-rule="evenodd" clip-rule="evenodd" d="M84.9913 13.9616C84.9913 18.8886 83.6056 22.3529 80.9111 24.5084C78.6786 26.2021 75.4452 27.0489 71.2881 27.0489C66.592 27.0489 63.1277 26.0481 60.8952 24.1235C58.4317 21.968 57.2 18.5037 57.2 13.7306C57.2 9.80442 58.2777 6.72504 60.5103 4.56948C62.8968 2.18296 66.4381 1.0282 71.2111 1.0282C76.446 1.0282 80.0643 2.18296 82.2199 4.41551C84.0675 6.41711 84.9913 9.57346 84.9913 13.9616ZM78.5246 13.8076C78.5246 11.3441 77.9088 9.34251 76.754 7.87981C75.4452 6.26314 73.4437 5.41631 70.9032 5.41631C68.3627 5.41631 66.4381 6.26314 65.1293 8.03378C64.0516 9.49648 63.5127 11.4211 63.5127 13.7306C63.5127 16.4251 63.9746 18.4267 64.8214 19.7354C66.0532 21.506 68.2087 22.4299 71.519 22.4299C74.2905 22.4299 76.2151 21.583 77.2929 19.8124C78.1397 18.5806 78.5246 16.5021 78.5246 13.8076Z" fill="#768298"/>
<path fill-rule="evenodd" clip-rule="evenodd" d="M110.319 16.1171H92.9201V26.587H86.6843V11.1131C86.6843 10.1893 86.8383 9.11153 87.2232 7.95676C87.9161 5.87818 89.2248 4.33849 91.1494 3.26071C93.382 2.02896 97.0772 1.41309 102.158 1.41309C113.013 1.41309 123.868 1.41309 134.723 1.41309V5.64723H125.33V26.587H119.48V5.64723C113.475 5.64723 107.778 5.57024 101.773 5.57024C99.4637 5.57024 97.8471 5.72421 96.9233 5.95517C95.3066 6.34009 94.2288 7.2639 93.5359 8.57263C92.997 9.57343 92.7661 10.6512 92.7661 11.883H110.319V16.1171Z" fill="#768298"/>
</svg>
