<svg width="19" height="18" viewBox="0 0 19 18" fill="none" xmlns="http://www.w3.org/2000/svg">
<path fill-rule="evenodd" clip-rule="evenodd" d="M8.65962 5.89537C9.12367 5.30347 9.29008 4.67965 8.76525 4.12901C7.58747 2.56918 6.79538 1.60458 6.29855 1.14005C5.354 0.256923 3.80021 0.37638 2.98216 1.1393C2.54278 1.54906 2.39403 1.68978 1.94288 2.1235C-0.570078 4.50326 0.962456 9.53399 5.03649 13.3938C9.1096 17.2527 14.4243 18.704 16.9425 16.3192C17.3588 15.9394 17.7113 15.6056 17.9893 15.3275C18.7909 14.5255 18.9126 13.1197 17.984 12.2065C17.5079 11.7382 16.536 11.0247 14.8187 9.86201C14.2927 9.41686 13.6691 9.51334 13.0973 9.86838C12.8222 10.0392 12.6221 10.2119 12.2442 10.57L11.5578 11.2199C11.4675 11.3055 10.24 10.7237 9.04852 9.59489C7.85638 8.46543 7.2421 7.30362 7.33208 7.21847L8.01886 6.56808C8.13877 6.45448 8.19609 6.39948 8.26961 6.32634C8.42278 6.17398 8.5496 6.03571 8.65962 5.89537ZM12.8237 12.4188L13.5102 11.7688C13.7182 11.5717 13.853 11.4505 13.9626 11.367C15.4671 12.3896 16.3383 13.0325 16.6942 13.3825C16.9079 13.5927 16.8747 13.9761 16.689 14.1619C16.4319 14.4191 16.0979 14.7353 15.6881 15.1095C14.0597 16.6514 9.76959 15.4798 6.30263 12.1952C2.83458 8.90949 1.59741 4.84833 3.21349 3.31789C3.66282 2.88595 3.80518 2.75128 4.23829 2.34736C4.40068 2.19591 4.84302 2.1619 5.04057 2.3466C5.42308 2.70425 6.13264 3.56416 7.17643 4.94034C7.1224 5.00384 7.05491 5.07559 6.97278 5.15729C6.9125 5.21726 6.86227 5.26544 6.75248 5.36946L6.06638 6.01921C4.89917 7.12386 5.8932 9.00393 7.78215 10.7935C9.6698 12.5819 11.6569 13.5238 12.8237 12.4188Z" fill="white"/>
</svg>
